<?xml version="1.0" standalone="no"?>
<!DOCTYPE svg PUBLIC "-//W3C//DTD SVG 20010904//EN"
 "http://www.w3.org/TR/2001/REC-SVG-20010904/DTD/svg10.dtd">
<svg version="1.0" xmlns="http://www.w3.org/2000/svg"
 width="260.000000pt" height="260.000000pt" viewBox="0 0 260.000000 260.000000"
 preserveAspectRatio="xMidYMid meet">
<metadata>
Created by potrace 1.11, written by Peter Selinger 2001-2013
</metadata>
<g transform="translate(0.000000,260.000000) scale(0.100000,-0.100000)"
fill="#000000" stroke="none">
<path d="M114 1483 l1 -1017 45 -26 c25 -15 81 -46 125 -70 44 -24 103 -57
130 -73 130 -77 310 -177 318 -177 4 0 7 147 7 326 l0 326 32 -20 c18 -11 69
-39 113 -62 44 -24 87 -48 95 -55 8 -7 22 -14 30 -17 8 -3 73 -40 145 -82 71
-42 135 -76 141 -76 7 0 52 23 101 51 128 75 287 166 375 215 63 35 78 39 79
26 0 -9 0 -150 0 -312 0 -162 2 -303 5 -313 5 -16 8 -17 22 -4 10 8 42 28 72
44 96 52 155 85 165 93 6 4 33 20 60 35 28 15 75 42 105 59 31 17 88 49 128
71 l72 40 0 1018 c0 559 -2 1017 -4 1017 -3 0 -31 -15 -63 -34 -32 -18 -83
-47 -113 -63 -30 -17 -100 -56 -155 -88 -55 -31 -120 -69 -145 -83 -25 -13
-190 -108 -368 -209 -178 -101 -326 -184 -330 -186 -5 -1 -107 54 -227 123
-121 69 -229 130 -240 136 -11 6 -87 49 -170 96 -82 47 -170 96 -195 110 -25
14 -80 46 -123 72 -43 25 -81 46 -84 46 -2 0 -35 18 -73 40 -38 22 -70 40 -73
40 -2 0 -4 -458 -3 -1017z m181 862 c28 -16 58 -35 68 -43 9 -8 17 -12 17 -7
0 4 7 2 15 -5 17 -14 58 -38 130 -76 28 -15 52 -30 55 -33 3 -4 22 -15 44 -25
21 -10 34 -21 30 -26 -21 -18 -488 -280 -492 -275 -6 6 -10 534 -4 552 3 9 16
6 45 -11 23 -13 65 -36 92 -51z m2139 -210 c-1 -152 -3 -277 -5 -280 -3 -2
-85 42 -184 99 -99 56 -211 119 -249 140 -75 42 -76 34 10 83 22 12 53 30 70
40 16 10 73 42 125 71 52 29 121 69 154 87 33 19 65 35 70 35 6 0 10 -97 9
-275z m-1744 -331 l0 -286 -52 29 c-29 16 -70 39 -90 51 -21 12 -55 32 -75 43
-297 168 -285 160 -266 173 10 7 43 26 73 43 46 25 245 138 370 211 19 11 36
21 38 21 1 1 2 -128 2 -285z m173 218 c20 -12 54 -31 75 -43 197 -111 301
-174 295 -180 -10 -9 -204 -119 -210 -119 -3 0 -17 -8 -31 -18 -15 -11 -52
-32 -82 -49 -103 -56 -135 -75 -145 -84 -5 -5 -13 -9 -17 -9 -4 0 -8 129 -8
286 l0 286 43 -24 c23 -14 59 -34 80 -46z m988 -217 c0 -153 -1 -279 -3 -280
-3 -3 -484 268 -493 277 -3 3 151 94 295 174 127 71 156 87 174 100 11 7 22
12 24 10 2 -3 3 -129 3 -281z m137 236 c37 -21 85 -49 107 -61 228 -126 305
-175 293 -186 -7 -6 -42 -27 -78 -47 -36 -19 -105 -58 -154 -86 -49 -28 -90
-51 -92 -51 -2 0 -32 -17 -66 -38 -35 -21 -70 -41 -78 -44 -14 -5 -15 28 -15
273 0 154 4 279 8 279 5 0 39 -17 75 -39z m-1555 -436 c204 -116 226 -131 210
-143 -10 -7 -58 -35 -108 -63 -49 -27 -97 -54 -105 -59 -8 -6 -71 -41 -140
-80 -94 -52 -126 -66 -130 -55 -4 11 -5 514 -1 547 1 9 -1 9 274 -147z m841
-134 c-1 -149 -3 -273 -5 -276 -4 -4 -40 16 -199 108 -70 40 -164 93 -224 125
-33 19 -64 37 -68 41 -5 4 94 65 220 135 125 71 236 134 247 141 11 7 22 9 25
5 3 -5 5 -130 4 -279z m1160 9 c-1 -154 -3 -282 -5 -285 -3 -2 -36 14 -74 37
-39 22 -88 50 -110 63 -22 12 -58 32 -80 45 -22 12 -84 47 -138 78 -54 30 -97
56 -95 57 4 3 437 249 473 268 17 9 30 16 30 17 0 0 0 -126 -1 -280z m-1021
229 c40 -23 90 -51 112 -63 22 -11 42 -24 43 -28 2 -5 7 -8 12 -8 8 0 219
-117 233 -131 5 -4 -11 -18 -35 -32 -226 -130 -338 -193 -363 -205 -16 -8 -42
-24 -57 -34 -16 -11 -29 -18 -29 -16 -7 14 -3 558 3 558 5 0 41 -19 81 -41z
m-723 -565 l0 -286 -52 29 c-51 28 -66 37 -168 96 -25 15 -98 56 -163 93 -65
36 -117 67 -115 69 2 2 20 12 40 24 62 34 100 56 313 179 77 44 141 81 143 81
1 1 2 -128 2 -285z m208 197 c68 -39 125 -71 127 -71 4 0 208 -120 213 -125 3
-2 -280 -166 -413 -239 -27 -15 -54 -32 -60 -37 -5 -5 -13 -9 -17 -9 -4 0 -8
128 -8 285 0 269 1 285 18 276 9 -5 73 -41 140 -80z m953 -196 c0 -152 -1
-279 -3 -281 -4 -3 -397 218 -438 246 -8 5 -26 15 -39 20 l-25 11 32 19 c18
11 37 20 42 20 6 0 10 5 10 10 0 6 4 10 9 10 5 0 84 43 177 96 92 53 181 104
198 114 17 9 32 16 34 15 1 -1 3 -127 3 -280z m233 183 c88 -51 175 -101 191
-110 17 -10 51 -29 78 -43 26 -14 47 -27 47 -29 0 -5 -57 -39 -130 -79 -30
-16 -119 -68 -198 -114 -79 -46 -148 -84 -154 -86 -9 -1 -12 70 -13 276 0 154
4 277 9 277 5 0 81 -42 170 -92z m-810 -517 c0 -149 -3 -273 -6 -276 -2 -2
-67 32 -144 76 -76 44 -161 93 -189 108 -27 16 -72 41 -100 56 -27 15 -53 30
-57 34 -5 4 94 65 220 135 125 71 236 134 247 141 11 7 22 9 25 5 3 -5 5 -130
4 -279z m1158 32 c0 -137 0 -263 -1 -281 l-1 -34 -32 20 c-18 11 -64 37 -103
57 -38 21 -74 41 -80 45 -12 10 -61 37 -188 108 -54 30 -97 55 -95 57 2 1 77
45 168 96 91 52 174 99 185 106 11 7 44 24 73 39 29 15 55 31 58 36 14 23 17
-16 16 -249z m-2202 217 c28 -16 52 -30 54 -30 4 0 369 -210 374 -215 4 -4 -3
-8 -288 -169 -186 -105 -205 -114 -210 -95 -4 16 -5 453 -1 522 1 24 12 22 71
-13z m1157 4 c97 -54 399 -227 416 -239 17 -12 12 -17 -50 -52 -132 -76 -309
-176 -369 -209 l-60 -33 0 279 c0 154 4 280 8 280 4 0 29 -12 55 -26z m823
-467 c96 -55 179 -104 183 -108 7 -5 -153 -109 -169 -109 -3 0 -59 -31 -125
-70 -66 -38 -122 -70 -125 -70 -3 0 -19 -9 -35 -21 -16 -11 -30 -19 -30 -17
-1 2 -2 129 -3 284 l-1 281 65 -35 c35 -19 144 -80 240 -135z m-1520 -118 c0
-154 -3 -278 -7 -276 -5 3 -57 33 -118 67 -60 34 -126 72 -145 83 -19 11 -60
33 -90 49 -86 47 -141 80 -138 83 3 3 72 43 373 216 55 31 106 58 113 58 9 1
12 -61 12 -280z"/>
</g>
</svg>
